<svg width="100%" height="100%" viewBox="0 0 100 100" version="1.1" xmlns="http://www.w3.org/2000/svg" xmlns:xlink="http://www.w3.org/1999/xlink" xml:space="preserve" style="fill-rule:evenodd;clip-rule:evenodd;stroke-linejoin:round;stroke-miterlimit:1.41421;">
    <g transform="matrix(1,0,0,1,-28.8535,39.8509)">
        <path d="M62.514,-9.793C63.491,-13.96 64.158,-17.215 64.516,-19.559C64.841,-21.675 65.004,-23.189 65.004,-24.1C65.004,-25.37 64.679,-26.314 64.028,-26.932C63.214,-27.713 61.749,-28.364 59.633,-28.885L60.317,-31.571C64.158,-31.408 67.25,-30.773 69.594,-29.666C71.547,-28.69 72.524,-27.599 72.524,-26.395C72.524,-25.874 72.263,-24.8 71.742,-23.172C70.961,-21.48 69.659,-17.345 67.836,-10.77C75.519,-12.495 80.645,-14.09 83.217,-15.555C84.715,-16.694 86.147,-17.264 87.514,-17.264C90.899,-17.264 92.592,-16.239 92.592,-14.188C92.592,-13.114 91.225,-12.072 88.491,-11.063C84.812,-9.533 77.455,-7.775 66.42,-5.789C65.867,-3.901 64.532,0.9 62.416,8.615C61.017,13.66 59.845,17.729 58.901,20.822C64.76,16.753 70.294,13.807 75.502,11.984C80.808,10.129 86.342,9.201 92.104,9.201C98.484,9.201 103.546,10.552 107.289,13.254C111.098,16.02 113.002,19.943 113.002,25.021C113.002,28.374 111.814,31.662 109.438,34.884C107.192,37.879 104.116,40.451 100.209,42.599C92.918,46.766 81.785,49.175 66.811,49.826L66.518,46.798C78.237,45.789 87.872,43.267 95.424,39.23C102.488,35.421 106.02,30.311 106.02,23.898C106.02,20.024 104.539,17.127 101.576,15.207C99.037,13.546 95.522,12.716 91.03,12.716C85.496,12.716 79.685,14.279 73.598,17.404C67.413,20.529 62.449,24.728 58.705,30.002C58.185,30.815 57.517,31.222 56.703,31.222C55.759,31.222 54.799,30.587 53.823,29.318C52.944,28.114 52.504,26.877 52.504,25.607C52.504,24.24 52.7,23.117 53.09,22.238L54.311,18.625C56.036,13.644 58.396,5.75 61.391,-5.057C58.95,-4.732 56.264,-4.569 53.334,-4.569C49.981,-4.569 47.361,-5.041 45.473,-5.985C43.259,-7.092 41.306,-9.028 39.614,-11.795L41.713,-13.504C44.155,-10.477 47.914,-8.963 52.992,-8.963C55.825,-8.963 58.998,-9.24 62.514,-9.793Z" style="fill-rule:nonzero;"/>
    </g>
</svg>
